<?xml version="1.0" encoding="UTF-8" standalone="no"?>
<!DOCTYPE svg PUBLIC "-//W3C//DTD SVG 1.1//EN"
 "http://www.w3.org/Graphics/SVG/1.1/DTD/svg11.dtd">
<!-- Generated by graphviz version 2.43.0 (0)
 -->
<!-- Title: %3 Pages: 1 -->
<svg width="1299pt" height="206pt"
 viewBox="0.00 0.00 1298.93 205.74" xmlns="http://www.w3.org/2000/svg" xmlns:xlink="http://www.w3.org/1999/xlink">
<g id="graph0" class="graph" transform="scale(1 1) rotate(0) translate(4 201.74)">
<title>%3</title>
<polygon fill="white" stroke="transparent" points="-4,4 -4,-201.74 1294.93,-201.74 1294.93,4 -4,4"/>
<!-- CLI -->
<g id="node1" class="node">
<title>CLI</title>
<ellipse fill="none" stroke="black" cx="73.54" cy="-98.87" rx="73.58" ry="26.74"/>
<text text-anchor="middle" x="73.54" y="-102.67" font-family="Times,serif" font-size="14.00">cli_interface</text>
<text text-anchor="middle" x="73.54" y="-87.67" font-family="Times,serif" font-size="14.00">(Cmdliner)</text>
</g>
<!-- VE -->
<g id="node2" class="node">
<title>VE</title>
<ellipse fill="none" stroke="black" cx="306.82" cy="-98.87" rx="113.69" ry="26.74"/>
<text text-anchor="middle" x="306.82" y="-102.67" font-family="Times,serif" font-size="14.00">verification_engine</text>
<text text-anchor="middle" x="306.82" y="-87.67" font-family="Times,serif" font-size="14.00">(Core Types + Glue)</text>
</g>
<!-- CLI&#45;&gt;VE -->
<g id="edge1" class="edge">
<title>CLI&#45;&gt;VE</title>
<path fill="none" stroke="black" d="M147.08,-98.87C158.47,-98.87 170.5,-98.87 182.65,-98.87"/>
<polygon fill="black" stroke="black" points="182.87,-102.37 192.87,-98.87 182.87,-95.37 182.87,-102.37"/>
</g>
<!-- BL -->
<g id="node3" class="node">
<title>BL</title>
<ellipse fill="none" stroke="black" cx="582.53" cy="-142.87" rx="115.93" ry="26.74"/>
<text text-anchor="middle" x="582.53" y="-146.67" font-family="Times,serif" font-size="14.00">boundary_logic</text>
<text text-anchor="middle" x="582.53" y="-131.67" font-family="Times,serif" font-size="14.00">(Symbolic Classifier)</text>
</g>
<!-- VE&#45;&gt;BL -->
<g id="edge2" class="edge">
<title>VE&#45;&gt;BL</title>
<path fill="none" stroke="black" d="M401.25,-113.89C425.48,-117.78 451.73,-122 476.51,-125.99"/>
<polygon fill="black" stroke="black" points="476.23,-129.49 486.66,-127.62 477.34,-122.58 476.23,-129.49"/>
</g>
<!-- DL -->
<g id="node4" class="node">
<title>DL</title>
<ellipse fill="none" stroke="black" cx="582.53" cy="-70.87" rx="90.52" ry="26.74"/>
<text text-anchor="middle" x="582.53" y="-74.67" font-family="Times,serif" font-size="14.00">domain_loader</text>
<text text-anchor="middle" x="582.53" y="-59.67" font-family="Times,serif" font-size="14.00">(YAML / Parser)</text>
</g>
<!-- VE&#45;&gt;DL -->
<g id="edge3" class="edge">
<title>VE&#45;&gt;DL</title>
<path fill="none" stroke="black" d="M411.69,-88.24C436.17,-85.74 462.15,-83.08 486.23,-80.62"/>
<polygon fill="black" stroke="black" points="486.83,-84.08 496.42,-79.58 486.12,-77.11 486.83,-84.08"/>
</g>
<!-- CB -->
<g id="node5" class="node">
<title>CB</title>
<ellipse fill="none" stroke="black" cx="868.14" cy="-142.87" rx="133.79" ry="26.74"/>
<text text-anchor="middle" x="868.14" y="-146.67" font-family="Times,serif" font-size="14.00">coq_backend</text>
<text text-anchor="middle" x="868.14" y="-131.67" font-family="Times,serif" font-size="14.00">(Verified Engine / Flocq)</text>
</g>
<!-- BL&#45;&gt;CB -->
<g id="edge4" class="edge">
<title>BL&#45;&gt;CB</title>
<path fill="none" stroke="black" d="M698.89,-142.87C707.17,-142.87 715.58,-142.87 724,-142.87"/>
<polygon fill="black" stroke="black" points="724.26,-146.37 734.26,-142.87 724.26,-139.37 724.26,-146.37"/>
</g>
<!-- DL&#45;&gt;CB -->
<g id="edge5" class="edge">
<title>DL&#45;&gt;CB</title>
<path fill="none" stroke="black" d="M651.82,-88.21C688.69,-97.57 734.73,-109.26 774.76,-119.42"/>
<polygon fill="black" stroke="black" points="773.98,-122.83 784.53,-121.9 775.7,-116.04 773.98,-122.83"/>
</g>
<!-- SA -->
<g id="node6" class="node">
<title>SA</title>
<ellipse fill="none" stroke="black" cx="1164.36" cy="-142.87" rx="126.64" ry="26.74"/>
<text text-anchor="middle" x="1164.36" y="-146.67" font-family="Times,serif" font-size="14.00">seal_and_audit</text>
<text text-anchor="middle" x="1164.36" y="-131.67" font-family="Times,serif" font-size="14.00">(Crypto Seals + Trace)</text>
</g>
<!-- CB&#45;&gt;SA -->
<g id="edge6" class="edge">
<title>CB&#45;&gt;SA</title>
<path fill="none" stroke="black" d="M1002.04,-142.87C1010.58,-142.87 1019.18,-142.87 1027.73,-142.87"/>
<polygon fill="black" stroke="black" points="1027.74,-146.37 1037.74,-142.87 1027.74,-139.37 1027.74,-146.37"/>
</g>
<!-- TS -->
<g id="node7" class="node">
<title>TS</title>
<ellipse fill="none" stroke="black" cx="306.82" cy="-170.87" rx="84.29" ry="26.74"/>
<text text-anchor="middle" x="306.82" y="-174.67" font-family="Times,serif" font-size="14.00">test_support</text>
<text text-anchor="middle" x="306.82" y="-159.67" font-family="Times,serif" font-size="14.00">(Test Utilities)</text>
</g>
<!-- TS&#45;&gt;BL -->
<g id="edge7" class="edge">
<title>TS&#45;&gt;BL</title>
<path fill="none" stroke="black" d="M387.36,-162.73C411.92,-160.22 439.49,-157.4 465.97,-154.69"/>
<polygon fill="black" stroke="black" points="466.46,-158.16 476.06,-153.66 465.75,-151.2 466.46,-158.16"/>
</g>
<!-- TS&#45;&gt;DL -->
<g id="edge8" class="edge">
<title>TS&#45;&gt;DL</title>
<path fill="none" stroke="black" d="M376.47,-155.66C394.59,-150.33 413.76,-143.47 430.57,-134.87 448.61,-125.63 448.61,-116.27 466.57,-106.87 478.01,-100.88 490.62,-95.68 503.17,-91.25"/>
<polygon fill="black" stroke="black" points="504.39,-94.53 512.74,-88.01 502.15,-87.9 504.39,-94.53"/>
</g>
<!-- TS&#45;&gt;CB -->
<g id="edge9" class="edge">
<title>TS&#45;&gt;CB</title>
<path fill="none" stroke="black" d="M387.76,-178.35C466.89,-184.38 591.4,-190.17 698.5,-178.87 723.49,-176.23 750.22,-171.45 774.86,-166.22"/>
<polygon fill="black" stroke="black" points="775.89,-169.58 784.92,-164.04 774.41,-162.74 775.89,-169.58"/>
</g>
<!-- CT -->
<g id="node8" class="node">
<title>CT</title>
<ellipse fill="none" stroke="black" cx="306.82" cy="-26.87" rx="123.99" ry="26.74"/>
<text text-anchor="middle" x="306.82" y="-30.67" font-family="Times,serif" font-size="14.00">compliance_templates</text>
<text text-anchor="middle" x="306.82" y="-15.67" font-family="Times,serif" font-size="14.00">(YAML Domains)</text>
</g>
<!-- CT&#45;&gt;DL -->
<g id="edge10" class="edge">
<title>CT&#45;&gt;DL</title>
<path fill="none" stroke="black" d="M406.64,-42.76C434.73,-47.27 465.15,-52.16 492.62,-56.58"/>
<polygon fill="black" stroke="black" points="492.16,-60.05 502.59,-58.18 493.27,-53.14 492.16,-60.05"/>
</g>
</g>
</svg>
